<svg width="24" height="25" viewBox="0 0 24 25" fill="none" xmlns="http://www.w3.org/2000/svg">
<g clip-path="url(#clip0_1_157)">
<path d="M20.0008 14.3424V12.7424C20.0008 12.318 19.8322 11.911 19.5322 11.611C19.2321 11.3109 18.8251 11.1424 18.4008 11.1424H2.40078C1.97643 11.1424 1.56947 11.3109 1.26941 11.611C0.969352 11.911 0.800781 12.318 0.800781 12.7424V22.3424C0.800781 22.7667 0.969352 23.1737 1.26941 23.4737C1.56947 23.7738 1.97643 23.9424 2.40078 23.9424H18.4008C18.8251 23.9424 19.2321 23.7738 19.5322 23.4737C19.8322 23.1737 20.0008 22.7667 20.0008 22.3424V20.7424M20.0008 14.3424H13.6008C12.7521 14.3424 11.9382 14.6795 11.338 15.2796C10.7379 15.8797 10.4008 16.6937 10.4008 17.5424C10.4008 18.3911 10.7379 19.205 11.338 19.8051C11.9382 20.4052 12.7521 20.7424 13.6008 20.7424H20.0008M20.0008 14.3424C20.8495 14.3424 21.6634 14.6795 22.2635 15.2796C22.8636 15.8797 23.2008 16.6937 23.2008 17.5424C23.2008 18.3911 22.8636 19.205 22.2635 19.8051C21.6634 20.4052 20.8495 20.7424 20.0008 20.7424M5.60078 11.1424V6.34236C5.60078 5.06932 6.10649 3.84842 7.00667 2.94825C7.90684 2.04807 9.12774 1.54236 10.4008 1.54236C11.6738 1.54236 12.8947 2.04807 13.7949 2.94825C14.6951 3.84842 15.2008 5.06932 15.2008 6.34236V11.1424M19.2008 17.5424H20.8008M16.0008 17.5424H17.6008M12.8008 17.5424H14.4008" stroke="#282828" stroke-width="1.4689"/>
</g>
<defs>
<clipPath id="clip0_1_157">
<rect width="24" height="24" fill="white" transform="translate(0 0.741577)"/>
</clipPath>
</defs>
</svg>
