<svg width="21" height="20" viewBox="0 0 21 20" fill="none" xmlns="http://www.w3.org/2000/svg">
<mask id="path-1-inside-1_1_1736" fill="white">
<path d="M4.34667 15.8346C3.96278 15.8346 3.6425 15.7063 3.38583 15.4496C3.12917 15.193 3.00056 14.8724 3 14.488V5.51464C3 5.13075 3.12861 4.81047 3.38583 4.5538C3.64306 4.29714 3.96306 4.16852 4.34583 4.16797H16.6542C17.0375 4.16797 17.3575 4.29658 17.6142 4.5538C17.8708 4.81102 17.9994 5.1313 18 5.51464V14.4888C18 14.8721 17.8714 15.1924 17.6142 15.4496C17.3569 15.7069 17.0369 15.8352 16.6542 15.8346H4.34667ZM17.1667 5.7388L10.8733 9.8588C10.8144 9.88936 10.755 9.91519 10.695 9.9363C10.6344 9.95686 10.5694 9.96713 10.5 9.96713C10.4306 9.96713 10.3656 9.95686 10.305 9.9363C10.2444 9.91575 10.185 9.88991 10.1267 9.8588L3.83333 5.73797V14.488C3.83333 14.638 3.88139 14.761 3.9775 14.8571C4.07361 14.9532 4.19667 15.0013 4.34667 15.0013H16.6542C16.8036 15.0013 16.9264 14.9532 17.0225 14.8571C17.1186 14.761 17.1667 14.638 17.1667 14.488V5.7388ZM10.5 9.16797L16.91 5.0013H4.09L10.5 9.16797ZM3.83333 5.91464V5.2388V5.26714V5.0013V5.26797V5.22464V5.91464Z"/>
</mask>
<path d="M4.34667 15.8346C3.96278 15.8346 3.6425 15.7063 3.38583 15.4496C3.12917 15.193 3.00056 14.8724 3 14.488V5.51464C3 5.13075 3.12861 4.81047 3.38583 4.5538C3.64306 4.29714 3.96306 4.16852 4.34583 4.16797H16.6542C17.0375 4.16797 17.3575 4.29658 17.6142 4.5538C17.8708 4.81102 17.9994 5.1313 18 5.51464V14.4888C18 14.8721 17.8714 15.1924 17.6142 15.4496C17.3569 15.7069 17.0369 15.8352 16.6542 15.8346H4.34667ZM17.1667 5.7388L10.8733 9.8588C10.8144 9.88936 10.755 9.91519 10.695 9.9363C10.6344 9.95686 10.5694 9.96713 10.5 9.96713C10.4306 9.96713 10.3656 9.95686 10.305 9.9363C10.2444 9.91575 10.185 9.88991 10.1267 9.8588L3.83333 5.73797V14.488C3.83333 14.638 3.88139 14.761 3.9775 14.8571C4.07361 14.9532 4.19667 15.0013 4.34667 15.0013H16.6542C16.8036 15.0013 16.9264 14.9532 17.0225 14.8571C17.1186 14.761 17.1667 14.638 17.1667 14.488V5.7388ZM10.5 9.16797L16.91 5.0013H4.09L10.5 9.16797ZM3.83333 5.91464V5.2388V5.26714V5.0013V5.26797V5.22464V5.91464Z" fill="#444444"/>
<path d="M3.83333 5.7388H3.23333V5.91464H3.83333H4.43333V5.7388H3.83333ZM3.83333 5.7388H3.23333V15.0013H3.83333H4.43333V5.7388H3.83333ZM3 14.488H1.8L1.8 14.4897L3 14.488ZM4.34583 4.16797V2.96797L4.34409 2.96797L4.34583 4.16797ZM18 5.51464H19.2L19.2 5.5129L18 5.51464ZM16.6542 15.8346L16.6559 14.6346H16.6542V15.8346ZM17.1667 5.7388H18.3667V3.51893L16.5094 4.73481L17.1667 5.7388ZM10.8733 9.8588L11.426 10.924L11.4799 10.896L11.5306 10.8628L10.8733 9.8588ZM10.695 9.9363L11.0807 11.0727L11.0933 11.0683L10.695 9.9363ZM10.1267 9.8588L9.4693 10.8627L9.5144 10.8923L9.56196 10.9176L10.1267 9.8588ZM3.83333 5.73797L4.4907 4.73404L2.63333 3.51785V5.73797H3.83333ZM4.34667 15.0013V13.8013V15.0013ZM17.1667 14.488H15.9667H17.1667ZM10.5 9.16797L9.846 10.1741L10.5 10.5992L11.154 10.1741L10.5 9.16797ZM16.91 5.0013L17.564 6.00742L20.9579 3.8013H16.91V5.0013ZM4.09 5.0013V3.8013H0.0421L3.436 6.00742L4.09 5.0013ZM4.34667 15.8346V14.6346C4.29043 14.6346 4.26794 14.6257 4.26488 14.6245C4.26226 14.6234 4.25977 14.6222 4.25634 14.6199C4.25279 14.6175 4.24537 14.6121 4.23436 14.6011L3.38583 15.4496L2.53731 16.2982C3.03302 16.7939 3.66488 17.0346 4.34667 17.0346V15.8346ZM3.38583 15.4496L4.23436 14.6011C4.2147 14.5814 4.21148 14.5721 4.21058 14.5699C4.20914 14.5663 4.20008 14.5432 4.2 14.4862L3 14.488L1.8 14.4897C1.80099 15.171 2.0417 15.8026 2.53731 16.2982L3.38583 15.4496ZM3 14.488H4.2V5.51464H3H1.8V14.488H3ZM3 5.51464H4.2C4.2 5.45871 4.20889 5.43652 4.21003 5.43368C4.21104 5.43116 4.21225 5.42872 4.21453 5.42531C4.2169 5.42176 4.22236 5.41431 4.23344 5.40325L3.38583 4.5538L2.53822 3.70436C2.04162 4.19988 1.8 4.83203 1.8 5.51464H3ZM3.38583 4.5538L4.23344 5.40325C4.25403 5.3827 4.26398 5.37919 4.26625 5.37828C4.26975 5.37687 4.29215 5.36805 4.34757 5.36797L4.34583 4.16797L4.34409 2.96797C3.66293 2.96896 3.03297 3.21068 2.53822 3.70436L3.38583 4.5538ZM4.34583 4.16797V5.36797H16.6542V4.16797V2.96797H4.34583V4.16797ZM16.6542 4.16797V5.36797C16.7096 5.36797 16.7315 5.37678 16.7342 5.37786C16.7366 5.37885 16.739 5.38005 16.7425 5.38235C16.7461 5.38475 16.7536 5.39025 16.7647 5.40141L17.6142 4.5538L18.4636 3.70619C17.9684 3.20995 17.3367 2.96797 16.6542 2.96797V4.16797ZM17.6142 4.5538L16.7647 5.40141C16.7851 5.42183 16.7886 5.43171 16.7896 5.43409C16.791 5.43774 16.7999 5.46045 16.8 5.51637L18 5.51464L19.2 5.5129C19.199 4.83171 18.9576 4.20129 18.4636 3.70619L17.6142 4.5538ZM18 5.51464H16.8V14.4888H18H19.2V5.51464H18ZM18 14.4888H16.8C16.8 14.5442 16.7912 14.5663 16.79 14.5693C16.7889 14.572 16.7876 14.5746 16.7852 14.5783C16.7826 14.5821 16.777 14.5898 16.7656 14.6011L17.6142 15.4496L18.4627 16.2982C18.9581 15.8028 19.2 15.1714 19.2 14.4888H18ZM17.6142 15.4496L16.7656 14.6011C16.7543 14.6124 16.7466 14.6181 16.743 14.6205C16.7394 14.6229 16.737 14.6241 16.7346 14.625C16.7321 14.626 16.7106 14.6347 16.6559 14.6346L16.6542 15.8346L16.6524 17.0346C17.3355 17.0356 17.9672 16.7936 18.4627 16.2982L17.6142 15.4496ZM16.6542 15.8346V14.6346H4.34667V15.8346V17.0346H16.6542V15.8346ZM17.1667 5.7388L16.5094 4.73481L10.2161 8.85481L10.8733 9.8588L11.5306 10.8628L17.8239 6.74279L17.1667 5.7388ZM10.8733 9.8588L10.3207 8.79365C10.3095 8.79945 10.3015 8.80263 10.2967 8.80433L10.695 9.9363L11.0933 11.0683C11.2085 11.0278 11.3194 10.9793 11.426 10.924L10.8733 9.8588ZM10.695 9.9363L10.3093 8.79998C10.3832 8.7749 10.4495 8.76714 10.5 8.76714V9.96713V11.1671C10.6894 11.1671 10.8857 11.1388 11.0807 11.0726L10.695 9.9363ZM10.5 9.96713V8.76714C10.5505 8.76714 10.6168 8.7749 10.6907 8.79998L10.305 9.9363L9.91928 11.0726C10.1143 11.1388 10.3106 11.1671 10.5 11.1671V9.96713ZM10.305 9.9363L10.6907 8.79998L10.6914 8.79998L10.1267 9.8588L9.56196 10.9176C9.67582 10.9784 9.79502 11.0304 9.91928 11.0726L10.305 9.9363ZM10.1267 9.8588L10.784 8.85487L4.4907 4.73404L3.83333 5.73797L3.17597 6.7419L9.4693 10.8627L10.1267 9.8588ZM3.83333 5.73797H2.63333V14.488H3.83333H5.03333V5.73797H3.83333ZM3.83333 14.488H2.63333C2.63333 14.92 2.78346 15.3602 3.12897 15.7057L3.9775 14.8571L4.82603 14.0086C4.89176 14.0743 4.94911 14.1588 4.98716 14.2562C5.02432 14.3514 5.03333 14.4337 5.03333 14.488H3.83333ZM3.9775 14.8571L3.12897 15.7057C3.47448 16.0512 3.91459 16.2013 4.34667 16.2013V15.0013V13.8013C4.40096 13.8013 4.48326 13.8103 4.57839 13.8475C4.67584 13.8855 4.7603 13.9429 4.82603 14.0086L3.9775 14.8571ZM4.34667 15.0013V16.2013H16.6542V15.0013V13.8013H4.34667V15.0013ZM16.6542 15.0013V16.2013C17.0871 16.2013 17.5264 16.0503 17.871 15.7057L17.0225 14.8571L16.174 14.0086C16.2392 13.9433 16.3234 13.886 16.421 13.8478C16.5163 13.8105 16.599 13.8013 16.6542 13.8013V15.0013ZM17.0225 14.8571L17.871 15.7057C18.2165 15.3602 18.3667 14.92 18.3667 14.488H17.1667H15.9667C15.9667 14.4337 15.9757 14.3514 16.0128 14.2562C16.0509 14.1588 16.1082 14.0743 16.174 14.0086L17.0225 14.8571ZM17.1667 14.488H18.3667V5.7388H17.1667H15.9667V14.488H17.1667ZM10.5 9.16797L11.154 10.1741L17.564 6.00742L16.91 5.0013L16.256 3.99518L9.846 8.16185L10.5 9.16797ZM16.91 5.0013V3.8013H4.09V5.0013V6.2013H16.91V5.0013ZM4.09 5.0013L3.436 6.00742L9.846 10.1741L10.5 9.16797L11.154 8.16185L4.744 3.99518L4.09 5.0013ZM3.83333 5.91464H5.03333V5.2388H3.83333H2.63333V5.91464H3.83333ZM3.83333 5.2388H2.63333V5.26714H3.83333H5.03333V5.2388H3.83333ZM3.83333 5.26714H5.03333V5.0013H3.83333H2.63333V5.26714H3.83333ZM3.83333 5.0013H2.63333V5.26797H3.83333H5.03333V5.0013H3.83333ZM3.83333 5.26797H5.03333V5.22464H3.83333H2.63333V5.26797H3.83333ZM3.83333 5.22464H2.63333V5.91464H3.83333H5.03333V5.22464H3.83333Z" fill="#444444" mask="url(#path-1-inside-1_1_1736)"/>
</svg>
