<svg width="25" height="25" viewBox="0 0 25 25" fill="none" xmlns="http://www.w3.org/2000/svg">
<g clip-path="url(#clip0_1_151)">
<path fill-rule="evenodd" clip-rule="evenodd" d="M22.9504 5.77319L13.4809 13.6152C13.2118 13.8381 12.8733 13.9601 12.5239 13.9601C12.1744 13.9601 11.836 13.8381 11.5669 13.6152L2.10189 5.77319C2.05111 5.92606 2.02527 6.08611 2.02539 6.24719V18.2472C2.02539 18.645 2.18343 19.0265 2.46473 19.3079C2.74603 19.5892 3.12757 19.7472 3.52539 19.7472H21.5254C21.9232 19.7472 22.3047 19.5892 22.5861 19.3079C22.8674 19.0265 23.0254 18.645 23.0254 18.2472V6.24719C23.026 6.08619 23.0007 5.92614 22.9504 5.77319ZM3.52539 3.24719H21.5254C22.321 3.24719 23.0841 3.56326 23.6467 4.12587C24.2093 4.68848 24.5254 5.45154 24.5254 6.24719V18.2472C24.5254 19.0428 24.2093 19.8059 23.6467 20.3685C23.0841 20.9311 22.321 21.2472 21.5254 21.2472H3.52539C2.72974 21.2472 1.96668 20.9311 1.40407 20.3685C0.841461 19.8059 0.525391 19.0428 0.525391 18.2472V6.24719C0.525391 5.45154 0.841461 4.68848 1.40407 4.12587C1.96668 3.56326 2.72974 3.24719 3.52539 3.24719ZM3.21039 4.74719L11.5744 11.6517C11.8423 11.8729 12.1786 11.9944 12.5261 11.9952C12.8735 11.996 13.2105 11.8762 13.4794 11.6562L21.9274 4.74719H3.21039Z" fill="#282828"/>
</g>
<defs>
<clipPath id="clip0_1_151">
<rect width="24" height="24" fill="white" transform="translate(0.525391 0.247192)"/>
</clipPath>
</defs>
</svg>
