<svg width="22" height="25" viewBox="0 0 22 25" fill="none" xmlns="http://www.w3.org/2000/svg">
<path d="M20.6339 24.8655H0L9.69374 12.4328H2.28649V12.0596H9.99543L19.0937 0.373142H13.0282C11.7301 0.373142 10.5532 0.402914 9.49526 0.460473C8.43538 0.520017 7.441 0.627196 6.51013 0.785979C5.58323 0.940793 4.66824 1.15118 3.76317 1.42111C2.85811 1.68708 1.91731 2.03243 0.944763 2.46115V0H21.5787L12.1787 12.0596H20.1655V12.4328H11.885L2.48496 24.4924H8.5505C9.84062 24.4924 11.0156 24.4646 12.0755 24.4051C13.1393 24.3475 14.1337 24.2423 15.0606 24.0875C15.9915 23.9287 16.9065 23.7124 17.8076 23.4365C18.7127 23.1626 19.6534 22.8172 20.6339 22.4044V24.8655Z" fill="#282828"/>
</svg>
